<?xml version="1.0" encoding="UTF-8"?> <svg xmlns="http://www.w3.org/2000/svg" width="737" height="311" viewBox="0 0 737 311" fill="none"> <path fill-rule="evenodd" clip-rule="evenodd" d="M467.411 107.857C465.115 108.245 462.33 109.075 461.223 109.702C457.29 111.928 453.611 119.522 453.611 125.413C453.611 127.923 453.514 129.326 453.226 130.767C452.937 132.208 451.857 133.809 450.811 133.587C450.244 133.467 441.028 132.848 430.332 132.211C396.974 130.225 378.629 130.587 374.682 133.312C370.931 135.901 371.818 138.425 379.293 146.44C380.299 147.518 381.122 148.588 381.122 148.818C381.122 149.049 383.046 150.159 385.4 151.286C389.402 153.203 390.037 153.335 395.271 153.331C405.056 153.324 449.618 150.248 450.88 149.492C451.213 149.293 451.299 149.984 451.094 151.212C450.904 152.342 451.004 153.349 451.315 153.45C451.889 153.635 450.996 210.053 450.395 211.66C450.23 212.099 449.691 216.434 449.197 221.293C448.369 229.425 448.375 230.359 449.274 233.004C450.746 237.338 454.677 243.363 457.491 245.598C461.6 248.862 463.337 248.201 466.191 242.29C469.406 235.631 469.43 235.541 471.352 222.583C473.163 210.372 473.187 209.92 472.844 194.464C472.653 185.824 472.191 170.786 471.82 161.046C471.114 142.559 470.809 123.855 471.193 122.631C471.316 122.238 472.312 121.917 473.406 121.917C475.913 121.917 476.081 122.49 476.206 131.443C476.314 139.154 477.426 142.305 480.402 143.329C481.886 143.839 482.217 143.682 484.026 141.615C485.121 140.364 487.079 137.273 488.378 134.748C490.505 130.613 490.739 129.73 490.739 125.856C490.739 120.446 489.782 115.287 488.362 113.045C487.676 111.96 485.769 110.584 483.257 109.359C478.615 107.097 474.322 106.689 467.411 107.857Z" fill="#150E70"></path> <path d="M396.078 183.106C399.061 181.155 404.229 177.679 407.561 175.383C410.893 173.087 414.032 171.208 414.537 171.208C415.957 171.208 430.627 184.521 432.733 187.721L433.997 189.642L430.63 192.6C428.779 194.226 422.746 198.964 417.225 203.128C410.167 208.45 406.744 210.633 405.7 210.475C403.429 210.133 401.284 208.528 399.265 205.66C398.259 204.229 396.47 202.593 395.291 202.024C392.635 200.742 389.416 196.137 388.443 192.227C387.572 188.73 387.68 188.602 396.078 183.106Z" fill="#150E70"></path> <path fill-rule="evenodd" clip-rule="evenodd" d="M179.985 61.9268C174.979 62.9773 173.332 64.0341 171.539 67.3444C170.327 69.5836 170.203 70.4176 170.485 74.4511C170.894 80.3234 173.256 89.0576 176.202 95.6011C179.608 103.164 187.976 117.621 191.793 122.536C193.62 124.888 195.004 126.918 194.87 127.048C194.737 127.178 179.664 127.928 161.375 128.715C35.9381 134.113 12.6337 135.397 4.95047 137.329C-0.623532 138.731 -1.19815 140.276 1.76919 145.885C4.00634 150.113 6.23465 151.688 10.7013 152.196C14.5456 152.634 14.3676 152.204 13.5142 159.009C13.1995 161.514 12.2725 170.504 11.4533 178.987C10.6347 187.47 9.39706 199.693 8.70399 206.149L7.44281 217.888L8.6928 220.43C11.4898 226.122 14.037 229.899 15.9217 231.151C17.0173 231.879 18.1264 232.843 18.3863 233.293C19.6139 235.42 23.8419 232.904 25.2115 229.232C25.6535 228.047 26.7715 225.921 27.6962 224.508C28.6208 223.095 29.8078 220.505 30.3335 218.752C33.3751 208.611 41.9842 196.713 48.7263 193.333L50.6245 192.382V194.047C50.6245 196.738 48.9655 204.441 47.0832 210.494C44.8855 217.559 44.892 218.878 47.1433 223.035C48.1452 224.885 49.45 227.299 50.0423 228.399C51.3636 230.851 56.0088 234.683 57.6613 234.683C59.5348 234.683 61.0588 232.811 63.8482 227.088C69.2083 216.088 70.9852 208.003 70.9026 194.982C70.8567 187.714 70.6557 185.901 69.5772 183.04C67.8092 178.35 65.849 176.102 61.8008 174.121C57.7998 172.164 54.3993 171.958 47.0514 173.229C41.1515 174.249 38.5359 175.632 34.486 179.871C32.6313 181.813 30.9912 183.282 30.8409 183.137C30.6912 182.992 30.8427 177.885 31.1786 171.79C31.5139 165.695 31.8498 159.057 31.9247 157.04L32.0602 153.374L55.9286 153.24C88.0077 153.062 136.671 152.485 174.593 151.832L205.739 151.297L206.864 152.574C212.394 158.859 219.142 168.823 222.647 175.877C227.859 186.372 232.343 200.86 232.028 206.197L231.847 209.263L224.568 202.408C216.057 194.392 213.804 191.724 205.565 179.898C202.192 175.058 198.574 170.204 197.522 169.112C195.784 167.305 195.39 167.154 193.168 167.443C188.841 168.005 188.657 168.63 190.846 175.321C193.541 183.561 204.338 203.276 210.837 211.826C217.796 220.98 227.658 228.834 234.079 230.333C239.436 231.584 244.541 226.704 248.055 216.974C249.921 211.808 250.297 202.979 248.978 195.332C247.025 184.012 240.311 167.992 232.221 155.348L229.253 150.711L238.506 150.723C243.596 150.73 267.675 150.429 292.015 150.055C325.446 149.541 337.097 149.535 339.649 150.032C344.785 151.032 346.436 150.148 349.239 144.896C350.467 142.597 351.403 140.222 351.32 139.619C351.236 139.017 351.672 137.989 352.288 137.334C353.537 136.006 354.101 133.82 354.53 128.653C354.801 125.377 354.719 125.084 353.219 123.94C352.34 123.269 351.076 122.721 350.411 122.721C349.747 122.721 348.603 122.174 347.871 121.508C346.634 120.381 346.272 120.338 342.823 120.91C336.605 121.938 332.771 122.16 311.375 122.725C300.049 123.023 273.021 124.039 251.313 124.982C229.606 125.925 211.646 126.503 211.403 126.268C210.001 124.908 202.491 111.959 198.414 103.87C193.553 94.2239 188.435 82.6369 188.856 82.2291C189.303 81.7943 194.365 86.1968 197.774 89.9864C202.395 95.123 206.909 99.5392 208.702 100.678C211.007 102.142 212.927 101.102 214.727 97.4131C215.554 95.7199 216.23 93.9936 216.23 93.5772C216.23 93.1614 216.641 92.3811 217.142 91.8435C217.69 91.2569 218.194 89.2524 218.404 86.8326L218.752 82.7991L212.334 76.5824C205.433 69.8972 199.906 65.8672 193.87 63.1178C189.325 61.0477 185.668 60.734 179.985 61.9268ZM283.863 158.434C279.509 159.485 276.912 160.792 272.374 164.218C267.806 167.665 264.497 171.85 261.372 178.13C258.995 182.91 258.957 183.084 258.957 189.269C258.957 196.971 259.835 199.989 264.089 206.915C271.297 218.649 283.427 226.114 295.285 226.114C299.178 226.114 309.03 224.15 313.723 222.438C324.62 218.462 337.237 207.268 340.485 198.695C340.902 197.595 341.653 195.924 342.155 194.982C342.656 194.039 343.207 191.795 343.378 189.994C343.724 186.365 343.046 184.985 340.922 184.985C340.216 184.985 339.341 184.697 338.978 184.345C338.49 183.872 336.853 183.872 332.721 184.345C329.642 184.697 326.715 185.137 326.215 185.323C325.716 185.508 324.587 186.858 323.706 188.322C322.825 189.785 320.519 192.588 318.582 194.55C313.487 199.709 302.795 205.55 298.446 205.55C295.605 205.55 288.097 204.077 285.428 202.996L283.134 202.067L286.369 200.33C288.147 199.375 294.244 196.262 299.917 193.413C305.589 190.564 310.726 187.824 311.332 187.323C314.65 184.584 317.579 174.627 315.676 172.552C315.176 172.007 314.331 170.536 313.797 169.284C313.263 168.031 312.242 166.394 311.528 165.645C308.313 162.273 301.264 159.251 295.202 158.646C292.771 158.404 289.986 158.073 289.014 157.911C288.041 157.75 285.723 157.985 283.863 158.434ZM166.43 163.077C165.782 163.207 163.793 163.667 162.01 164.098C160.228 164.53 158.045 165.04 157.159 165.231C154.542 165.797 153.851 167.887 154.199 174.19C154.545 180.485 153.649 188.973 151.964 195.371C150.467 201.055 147.816 207.046 147.251 206.024C147.02 205.606 146.268 202.867 145.581 199.937C144.04 193.375 143.956 185.975 145.328 177.632C146.746 169.01 146.706 166.616 145.13 165.848C144.435 165.51 143.451 164.899 142.944 164.491C141.969 163.706 140.53 163.857 135.123 165.312C132.346 166.059 132.007 166.342 130.907 168.843C127.91 175.652 126.324 183.898 125.714 195.839C125.164 206.618 126.686 213.34 131.796 222.687C135.669 229.772 136.975 231.457 140.666 234.133C144.815 237.14 146.633 237.762 149.887 237.289C155.564 236.464 160.521 231.22 165.648 220.615C172.014 207.447 175.099 193.104 175.173 176.329C175.216 166.42 174.897 164.992 172.638 164.992C172.079 164.992 171.142 164.478 170.556 163.849C169.511 162.73 168.806 162.598 166.43 163.077ZM292.258 166.136C294.732 167.359 299.327 171.647 299.327 172.732C299.327 173.56 293.963 178.416 287.511 183.427C284.772 185.555 280.87 188.587 278.84 190.166C274.483 193.554 274.281 193.401 274.281 186.699C274.28 181.153 275.411 179.252 283.499 171.192C286.857 167.848 289.68 165.084 289.774 165.051C289.868 165.019 290.986 165.507 292.258 166.136Z" fill="#150E70"></path> <path d="M86.304 184.447C88.776 182.843 93.0581 179.986 95.8193 178.099C98.5812 176.211 101.182 174.667 101.6 174.667C102.777 174.667 114.934 185.609 116.679 188.24L117.727 189.819L114.937 192.25C113.403 193.587 108.403 197.481 103.828 200.903C97.9789 205.278 95.1429 207.072 94.2772 206.942C92.3951 206.661 90.6182 205.342 88.9451 202.985C88.1108 201.808 86.6282 200.463 85.6512 199.996C83.4506 198.942 80.7832 195.157 79.9764 191.943C79.2551 189.069 79.3443 188.963 86.304 184.447Z" fill="#150E70"></path> <path d="M431.84 2.75279C431.84 2.18555 432.285 1.28929 432.83 0.761465C434.067 -0.438129 438.866 -0.178802 441.815 1.247C442.911 1.77711 444.081 2.21068 444.415 2.21068C446.564 2.21068 453.056 6.28188 453.056 7.62999C453.056 8.62394 472.584 26.6219 481.275 33.6378C486.379 37.7575 516.276 57.5982 523.947 61.9562C525.895 63.0627 529.371 65.3408 531.673 67.0191C537.648 71.3747 550.649 78.9756 568.665 88.646C570.826 89.8056 574.801 92.3408 577.498 94.279C580.195 96.2172 584.46 98.7889 586.976 99.993C593.06 102.905 593.106 104.561 587.191 107.565C582.095 110.153 577.399 109.349 564.242 103.637C559.652 101.643 554.766 99.7183 553.386 99.3578C550.212 98.5295 538.023 93.2399 532.111 90.1261C529.634 88.8214 525.619 86.7169 523.188 85.4494C520.757 84.1818 516.911 81.9374 514.642 80.4619C512.373 78.9859 508.926 76.9254 506.981 75.8823C502.624 73.5454 485.956 63.0204 480.755 59.3211C478.648 57.8227 475.272 55.6612 473.253 54.5176C466.925 50.9342 460.789 45.8274 449.433 34.6928C439.833 25.2812 436.792 22.5518 437.979 24.4123C438.45 25.1515 434.898 31.266 432.293 34.1999C424.015 43.5236 404.109 58.3654 383.427 70.635C361.153 83.8493 322.026 100.085 302.521 104.206C296.263 105.528 281.996 105.141 279.542 103.583C277.779 102.463 276.253 99.9788 276.253 98.2291C276.253 95.8099 281.514 92.7755 292.165 89.0499C300.613 86.0949 307.647 83.2473 313.412 80.4476C315.859 79.2595 320.766 77.0899 324.315 75.6276C334.819 71.2987 355.906 60.1157 367.298 52.8318C391.717 37.2183 413.601 20.789 418.798 14.1672C420.819 11.5921 421.561 11.2773 429.037 9.82296C430.532 9.53163 430.627 9.35055 430.306 7.40263C430.052 5.86315 430.212 5.09428 430.899 4.54076C431.416 4.1249 431.84 3.32002 431.84 2.75279Z" fill="#150E70"></path> <path d="M650.359 178.043C658.133 170.528 666.815 166.784 681.431 164.644C686.046 163.968 693.16 164.29 697.483 165.369C699.019 165.752 702.945 167.318 706.207 168.849C710.99 171.093 713.312 172.766 718.19 177.48C723.546 182.656 724.684 184.21 728.09 191.008C738.507 211.801 739.725 240.633 731.209 264.81C724.126 284.92 712.087 301.425 700.494 306.916C695.673 309.2 691.407 310.077 682.725 310.569C677.231 310.88 676.956 310.824 674.532 308.892C672.092 306.947 667.124 298.441 667.124 296.207C667.124 293.564 669.099 292.332 675.298 291.107C680.365 290.106 682.22 289.36 685.968 286.815C704.537 274.203 716.141 250.495 716.222 225.003C716.284 205.263 710.336 193.067 697.832 187.29C693.73 185.395 692.654 185.195 686.582 185.195C680.015 185.195 679.733 185.261 673.671 188.22C668.893 190.552 666.18 192.485 661.829 196.654C655.481 202.738 646.189 214.421 646.183 216.328C646.18 217.017 645.709 218.451 645.136 219.513C644.562 220.577 644.093 221.81 644.093 222.254C644.093 224.171 640.458 230.155 638.869 230.856C637.36 231.52 636.789 231.318 634.044 229.143C630.534 226.362 627.7 221.741 624.059 212.858C622.691 209.518 620.919 205.875 620.122 204.761C616.861 200.206 610.77 194.748 606.754 192.782C599.052 189.011 590.208 189.717 587.709 194.303C585.529 198.304 588.265 212.271 593.942 226.129C597.02 233.64 597.46 235.291 597.168 238.23C596.982 240.103 596.312 242.133 595.679 242.745C594.611 243.778 594.351 243.765 592.022 242.552C588.529 240.734 584.58 236.2 580.128 228.898C575.156 220.743 573.178 216.318 571.009 208.502C567.006 194.077 569.401 180.153 577.032 173.499C581.438 169.658 592.511 166.972 601.965 167.452C607.291 167.722 608.437 168.052 615.012 171.211C623.24 175.166 629.969 180.694 635.83 188.314L639.425 192.986L642.213 188.105C643.944 185.075 647.033 181.258 650.359 178.043Z" fill="#150E70"></path> <path d="M516.558 183.107C519.541 181.155 524.708 177.679 528.04 175.383C531.373 173.087 534.512 171.208 535.016 171.208C536.436 171.208 551.106 184.521 553.212 187.722L554.476 189.643L551.109 192.6C549.258 194.226 543.225 198.964 537.704 203.129C530.646 208.451 527.224 210.633 526.179 210.475C523.908 210.134 521.764 208.528 519.745 205.661C518.738 204.23 516.949 202.593 515.77 202.024C513.114 200.742 509.896 196.138 508.922 192.227C508.052 188.731 508.159 188.602 516.558 183.107Z" fill="#150E70"></path> <path fill-rule="evenodd" clip-rule="evenodd" d="M711.581 126.782C678.26 126.688 642.92 127.124 580.033 128.405C534.479 129.334 515.24 130.596 512.223 132.855C510.202 134.367 512.326 140.738 515.638 143.098C516.718 143.868 518.717 144.786 520.08 145.139C523.33 145.981 580.662 148.106 613.568 148.603C648.953 149.138 698.767 149.715 709.057 149.709C713.76 149.706 719.73 149.701 722.325 149.697C729.023 149.688 730.54 149.045 732.472 145.396C733.348 143.743 734.075 142.046 734.089 141.625C734.103 141.205 734.552 140.295 735.087 139.604C735.651 138.875 736.257 136.571 736.53 134.119L737 129.891L735.319 129.159C734.395 128.756 732.815 128.051 731.808 127.59C730.802 127.13 729.221 126.769 728.297 126.789C727.372 126.808 719.85 126.805 711.581 126.782Z" fill="#150E70"></path> </svg> 