<?xml version="1.0" encoding="UTF-8"?>
<svg id="Calque_1" xmlns="http://www.w3.org/2000/svg" version="1.1" viewBox="0 0 178 80">
  <!-- Generator: Adobe Illustrator 29.5.1, SVG Export Plug-In . SVG Version: 2.1.0 Build 141)  -->
  <g>
    <path d="M9,71.1v3.3H2.9v-3.3H.2v8.8h2.7v-3.4h6.1v3.4h2.7v-8.8h-2.7Z"/>
    <path d="M19.2,71.1v8.8h9.8v-2h-7.2v-1.6h6.7v-1.7h-6.7v-1.5h7.1v-2s-9.7,0-9.7,0Z"/>
    <path d="M42.4,73l1.9,3.5h-3.8s1.9-3.5,1.9-3.5ZM40.6,71.1l-4.9,8.8h3l.8-1.6h5.7l.9,1.6h2.9l-4.8-8.8h-3.6Z"/>
    <path d="M55.5,71.1v8.8h8.7v-2.2h-6v-6.6s-2.7,0-2.7,0Z"/>
    <path d="M68.8,71.1v2.2h3.9v6.6h2.7v-6.6h3.9v-2.2h-10.5Z"/>
    <path d="M95,71.1v3.3h-6.1v-3.3h-2.7v8.8h2.7v-3.4h6.1v3.4h2.7v-8.8h-2.7Z"/>
    <path d="M124.8,76.6c0,1.3,0,1.7-.2,2.1-.3.8-1.1,1.1-2.4,1.2h-3.3c-2.5,0-3.3,0-4.1-.6-.9-.5-1.1-1.5-1.1-4.1s.3-3.1,1.2-3.7c.8-.5,1.6-.6,4.1-.6s4,0,4.7.4,1,1.1,1,2.4v.3h-2.6c0-1-.2-1-2.6-1s-2.6,0-2.9.3-.4.6-.4,2.1.2,2.3,2.8,2.3,2.3,0,2.7-.2c.4-.2.5-.4.5-1.1h2.6v.2Z"/>
    <path d="M132.2,71.1h2.7v6.6h6v2.2h-8.7s0-8.8,0-8.8Z"/>
    <path d="M150.4,71.1v5.5c.1,1,.6,1.2,2.6,1.2s2.6,0,2.9-.3c.3-.2.4-.6.4-1.3v-5.2h2.7v4.6c0,2.2-.2,2.8-.9,3.5-.6.5-1.4.7-2.6.7h-2.2c-2.5,0-3,0-3.6-.2-1.6-.5-2-1.3-2-3.9v-4.7h2.7Z"/>
    <path d="M166.5,71.1h7.9c1,0,1.6,0,2,.3.7.4,1,1,1,2.1s-.4,1.7-1.2,1.9c1.2.2,1.6.7,1.6,2s-.3,1.8-1,2.2c-.4.2-1,.3-2,.3h-8.3v-8.8h0ZM173.6,74.6c.5,0,.7,0,.9,0s.3-.4.3-.7-.2-.6-.5-.7h-5.2v1.6h4.5ZM173.9,78h.8c.3,0,.4-.4.4-.7s-.1-.6-.5-.8h-5.6v1.6h4.9Z"/>
  </g>
  <g>
    <path d="M64.2,33.1c4.9,0,9,4,9,9s-4,9-9,9h-5.9c-4.9,0-9-4-9-9s4-9,9-9h5.9ZM64.2,21.4h-5.9c-11.4,0-20.7,9.3-20.7,20.7s9.3,20.7,20.7,20.7h5.9c11.4,0,20.7-9.3,20.7-20.7s-9.3-20.7-20.7-20.7Z"/>
    <path d="M166.7,42.7c0,4.9-3.9,8.8-8.8,8.9-5,0-9.1-4.2-9.1-9.2v-21h-11.1v20.9c0,10.6,8.1,19.7,18.7,20.4,11.7.8,21.5-8.5,21.5-20v-21.3h-11.1v21.3h0Z"/>
    <path d="M133.2,36.9c0-8.5-7-15.5-15.5-15.5h-28.5v41.3h12.4v-10.3h4.3l8,8c1.5,1.5,3.6,2.4,5.7,2.4h13.6l-5.5-5.5s-4-4.8-10.4-4.8h.4c8.5,0,15.5-7,15.5-15.5M101.7,41v-8.1h16.1c2.2,0,4,1.9,4,4s-1.9,4-4,4h-16.1Z"/>
    <path d="M16.7,42.1c4.4,0,8.6-1.7,11.7-4.9l15.8-15.8h-13.6c-2.1,0-4.2.8-5.7,2.4L6.6,42.1l18.3,18.3c1.5,1.5,3.6,2.4,5.7,2.4h13.6l-15.8-15.8c-3.1-3.1-7.3-4.9-11.7-4.9"/>
    <path d="M.2,62.7h12.5v-4.2L.2,46v16.7Z"/>
    <path d="M12.7,0L4.1,8.6C1.6,11.1.2,14.4.2,17.9v19.9l7.6-7.6c3.1-3.1,4.9-7.4,4.9-11.8V0Z"/>
  </g>
</svg>