<?xml version="1.0" encoding="UTF-8"?>
<svg width="120px" height="55px" viewBox="0 0 120 55" version="1.1" xmlns="http://www.w3.org/2000/svg" xmlns:xlink="http://www.w3.org/1999/xlink">
    <title>Combined Shape</title>
    <g id="easyAPP---Sinistres" stroke="none" stroke-width="1" fill="none" fill-rule="evenodd">
        <path d="M30.8560645,47.1846452 L30.8560645,52.2256129 C30.8560645,53.2514194 31.4802581,53.8872258 32.4421935,53.8872258 C33.4021935,53.8872258 34.0399355,53.2514194 34.0399355,52.2256129 L34.0399355,52.2256129 L34.0399355,47.1846452 L35.2050968,47.1846452 L35.2050968,52.2798065 C35.2050968,53.8669032 34.0070323,54.9352903 32.4421935,54.9352903 C30.8763871,54.9352903 29.6899355,53.8669032 29.6899355,52.2798065 L29.6899355,52.2798065 L29.6899355,47.1846452 L30.8560645,47.1846452 Z M91.8779032,47.1199032 C92.8930645,47.1199032 93.6043548,47.3773226 94.2643548,47.9937742 L94.2643548,47.9937742 L93.5191935,48.7273226 C93.0440323,48.2753871 92.4933871,48.1340968 91.845,48.1340968 C90.9382258,48.1340968 90.4417742,48.6537742 90.4417742,49.333129 C90.4417742,49.6128065 90.5279032,49.8615161 90.7340323,50.0463548 C90.9275806,50.2176452 91.241129,50.3482903 91.5982258,50.4015161 L91.5982258,50.4015161 L92.471129,50.5311935 C93.1833871,50.6386129 93.5820968,50.8118387 93.9062903,51.103129 C94.3282258,51.4689355 94.5333871,52.0205484 94.5333871,52.6786129 C94.5333871,54.0934516 93.3779032,54.9353871 91.7695161,54.9353871 C90.6140323,54.9353871 89.7837097,54.6653871 89.0501613,53.9202258 L89.0501613,53.9202258 L89.8272581,53.1537742 C90.3885484,53.7160323 91.0020968,53.8873226 91.7917742,53.8873226 C92.7943548,53.8873226 93.3779032,53.4557097 93.3779032,52.7115161 C93.3779032,52.3766774 93.2830645,52.0950645 93.0769355,51.913129 C92.8814516,51.7292581 92.6879032,51.6537742 92.235,51.5889355 L92.235,51.5889355 L91.3272581,51.4592581 C90.701129,51.3721613 90.2046774,51.1573226 89.8698387,50.8447419 C89.4924194,50.4876452 89.3085484,50.0028065 89.3085484,49.3757097 C89.3085484,48.0373226 90.2791935,47.1199032 91.8779032,47.1199032 Z M22.6314194,47.1199032 C23.6465806,47.1199032 24.357871,47.3773226 25.0159355,47.9937742 L25.0159355,47.9937742 L24.2727097,48.7273226 C23.7975484,48.2753871 23.2469032,48.1340968 22.5994839,48.1340968 C21.6927097,48.1340968 21.1952903,48.6537742 21.1952903,49.333129 C21.1952903,49.6128065 21.2823871,49.8615161 21.4875484,50.0463548 C21.6810968,50.2176452 21.9946452,50.3482903 22.3507742,50.4015161 L22.3507742,50.4015161 L23.2246452,50.5311935 C23.9369032,50.6386129 24.3365806,50.8118387 24.6607742,51.103129 C25.0817419,51.4689355 25.2869032,52.0205484 25.2869032,52.6786129 C25.2869032,54.0934516 24.1314194,54.9353871 22.5230323,54.9353871 C21.3685161,54.9353871 20.5381935,54.6653871 19.8027097,53.9202258 L19.8027097,53.9202258 L20.5807742,53.1537742 C21.1420645,53.7160323 21.7565806,53.8873226 22.5452903,53.8873226 C23.5498065,53.8873226 24.1314194,53.4557097 24.1314194,52.7115161 C24.1314194,52.3766774 24.0346452,52.0950645 23.8294839,51.913129 C23.6349677,51.7292581 23.4423871,51.6537742 22.9865806,51.5889355 L22.9865806,51.5889355 L22.0807742,51.4592581 C21.4527097,51.3721613 20.9572258,51.1573226 20.6233548,50.8447419 C20.2459355,50.4876452 20.0610968,50.0028065 20.0610968,49.3757097 C20.0610968,48.0373226 21.0327097,47.1199032 22.6314194,47.1199032 Z M73.0132258,47.1195161 C74.426129,47.1195161 75.4848387,47.9498387 75.7548387,49.4837097 L75.7548387,49.4837097 L74.5664516,49.4837097 C74.3825806,48.7066129 73.8658065,48.1656452 73.0132258,48.1656452 C72.5593548,48.1656452 72.1490323,48.3398387 71.8780645,48.6301613 C71.5016129,49.0404839 71.4145161,49.4837097 71.4145161,51.0272581 C71.4145161,52.5708065 71.5016129,53.0130645 71.8780645,53.4243548 C72.1490323,53.7156452 72.5593548,53.8879032 73.0132258,53.8879032 C73.8658065,53.8879032 74.3951613,53.3479032 74.5790323,52.5708065 L74.5790323,52.5708065 L75.7548387,52.5708065 C75.4935484,54.1037097 74.4048387,54.9359677 73.0132258,54.9359677 C72.2148387,54.9359677 71.5219355,54.6437097 70.9945161,54.1133871 C70.2387097,53.3595161 70.2493468,52.5059677 70.2493468,51.0272581 L70.2493946,50.772701 C70.2507475,49.4485763 70.2831689,48.6514516 70.9945161,47.9391935 C71.5219355,47.4117742 72.2148387,47.1195161 73.0132258,47.1195161 Z M13.3707097,47.1199032 C14.3868387,47.1199032 15.098129,47.3773226 15.758129,47.9937742 L15.758129,47.9937742 L15.0129677,48.7273226 C14.5368387,48.2753871 13.9871613,48.1340968 13.3387742,48.1340968 C12.432,48.1340968 11.9345806,48.6537742 11.9345806,49.333129 C11.9345806,49.6128065 12.0226452,49.8615161 12.2268387,50.0463548 C12.4203871,50.2176452 12.7349032,50.3482903 13.0900645,50.4015161 L13.0900645,50.4015161 L13.9649032,50.5311935 C14.6761935,50.6386129 15.0768387,50.8118387 15.4010323,51.103129 C15.822,51.4689355 16.0261935,52.0205484 16.0261935,52.6786129 C16.0261935,54.0934516 14.8716774,54.9353871 13.2632903,54.9353871 C12.1087742,54.9353871 11.2774839,54.6653871 10.5429677,53.9202258 L10.5429677,53.9202258 L11.3210323,53.1537742 C11.8813548,53.7160323 12.4968387,53.8873226 13.2836129,53.8873226 C14.288129,53.8873226 14.8716774,53.4557097 14.8716774,52.7115161 C14.8716774,52.3766774 14.7749032,52.0950645 14.5687742,51.913129 C14.3752258,51.7292581 14.1816774,51.6537742 13.7268387,51.5889355 L13.7268387,51.5889355 L12.8210323,51.4592581 C12.1949032,51.3721613 11.6974839,51.1573226 11.3636129,50.8447419 C10.9852258,50.4876452 10.8013548,50.0028065 10.8013548,49.3757097 C10.8013548,48.0373226 11.7729677,47.1199032 13.3707097,47.1199032 Z M4.359,47.1839677 L7.17609677,54.8697742 L5.93448387,54.8697742 L5.40609677,53.3271935 L2.37222581,53.3271935 L1.84287097,54.8697742 L0.601258065,54.8697742 L3.42029032,47.1839677 L4.359,47.1839677 Z M52.9152581,47.1839677 L55.7333226,54.8697742 L54.4926774,54.8697742 L53.9623548,53.3271935 L50.9304194,53.3271935 L50.4010645,54.8697742 L49.1584839,54.8697742 L51.9765484,47.1839677 L52.9152581,47.1839677 Z M60.8473548,47.183871 L64.3999355,52.5819355 L64.3999355,47.183871 L65.5660645,47.183871 L65.5660645,54.8696774 L64.4967097,54.8696774 L60.9460645,49.4619355 L60.9460645,54.8696774 L59.7799355,54.8696774 L59.7799355,47.183871 L60.8473548,47.183871 Z M85.176,47.1841613 L85.176,48.2322258 L81.4308387,48.2322258 L81.4308387,50.4764194 L84.6253548,50.4764194 L84.6253548,51.5138387 L81.4308387,51.5138387 L81.4308387,53.822871 L85.176,53.822871 L85.176,54.8699677 L80.2647097,54.8699677 L80.2647097,47.1841613 L85.176,47.1841613 Z M43.0292903,47.1840645 C44.4876774,47.1840645 45.4138065,48.1227742 45.4138065,49.4292258 C45.4138065,50.5314839 44.7460645,51.2330968 43.881871,51.4701935 L43.881871,51.4701935 L45.6528387,54.869871 L44.2921935,54.869871 L42.6731613,51.6308387 L41.2147742,51.6308387 L41.2147742,54.869871 L40.0496129,54.869871 L40.0496129,47.1840645 Z M3.91674194,48.9220323 L2.71770968,52.3342903 L5.08190323,52.3342903 L3.91674194,48.9220323 Z M52.473,48.9220323 L51.2749355,52.3342903 L53.639129,52.3342903 L52.473,48.9220323 Z M42.9431613,48.232129 L41.2147742,48.232129 L41.2147742,50.6389032 L42.9431613,50.6389032 C43.7202581,50.6389032 44.2486452,50.1956774 44.2486452,49.439871 C44.2486452,48.686 43.7202581,48.232129 42.9431613,48.232129 L42.9431613,48.232129 Z M55.6231223,16.6359498 L55.6231223,31.0528777 C55.6231223,34.7386458 57.7233103,36.3246019 60.3828715,36.3246019 C63.0428088,36.3246019 65.2818056,34.6931285 65.2818056,31.0528777 L65.2818056,31.0528777 L65.2818056,16.6359498 L70.0411787,16.6359498 L70.0411787,40.2906207 L65.3754734,40.2906207 L65.3754734,37.9113103 C63.7421191,39.6834734 61.4564765,40.5697429 59.0756614,40.5697429 C56.6508339,40.5697429 54.6439373,39.7771411 53.2441881,38.4240376 C51.4250031,36.6511223 50.8648777,34.4121254 50.8648777,31.7518119 L50.8648777,31.7518119 L50.8648777,16.6359498 L55.6231223,16.6359498 Z M22.6124765,16.3554734 C29.0981191,16.3554734 32.3629467,19.1102069 32.3629467,24.4733417 L32.3629467,24.4733417 L32.3629467,40.290395 L27.6994984,40.290395 L27.6994984,38.1446897 C25.9721003,39.8698307 24.3387461,40.5695172 21.3996865,40.5695172 C18.4602508,40.5695172 16.5011285,39.8698307 15.0539812,38.4238119 C13.8415674,37.1643762 13.1885266,35.3451912 13.1885266,33.339047 C13.1885266,29.372652 15.9410031,26.5265078 21.3534169,26.5265078 L21.3534169,26.5265078 L27.6054545,26.5265078 L27.6054545,24.8476364 C27.6054545,21.8623072 26.1124138,20.4159122 22.4258934,20.4159122 C19.8133542,20.4159122 18.5542947,21.0226834 17.247837,22.701931 L17.247837,22.701931 L14.1218182,19.7621191 C16.360815,17.1492038 18.6946082,16.3554734 22.6124765,16.3554734 Z M4.76930408,7.07213793 L4.76930408,33.4789091 C4.76930408,35.2988464 5.422721,36.2310094 7.33557367,36.2310094 L7.33557367,36.2310094 L9.43425705,36.2310094 L9.43425705,40.2903197 L6.49594984,40.2903197 C1.97055799,40.2903197 0.0118119122,37.2579687 0.0118119122,33.7595361 L0.0118119122,33.7595361 L0.0118119122,7.07213793 L4.76930408,7.07213793 Z M42.1403887,7.07213793 L42.1403887,33.4789091 C42.1403887,35.2988464 42.7926771,36.2310094 44.7066583,36.2310094 L44.7066583,36.2310094 L46.806094,36.2310094 L46.806094,40.2903197 L43.8670345,40.2903197 C39.3408903,40.2903197 37.3821442,37.2579687 37.3821442,33.7595361 L37.3821442,33.7595361 L37.3821442,7.07213793 L42.1403887,7.07213793 Z M80.4451411,16.6358746 L85.1112226,24.3354357 L89.7287774,16.6358746 L95.4662069,16.6358746 L87.7218809,28.2070345 L95.794232,40.2905455 L90.0552978,40.2905455 L85.1112226,32.2181944 L80.1178683,40.2905455 L74.3804389,40.2905455 L82.4964263,28.2070345 L74.7062069,16.6358746 L80.4451411,16.6358746 Z M27.6054545,29.8394859 L22.0534796,29.8394859 C19.2539812,29.8394859 17.80721,31.0992978 17.80721,33.2450031 C17.80721,35.3922132 19.1606897,36.6053793 22.1467712,36.6053793 C23.9652038,36.6053793 25.3190596,36.4643135 26.5781191,35.2518997 C27.2789342,34.5514608 27.6054545,33.4315862 27.6054545,31.7519624 L27.6054545,31.7519624 L27.6054545,29.8394859 Z M107.510784,1.77635684e-15 L107.510784,12.683511 L119.972727,12.683511 L113.795925,18.8603135 L101.223762,18.8652038 L101.223762,6.28739812 L107.510784,1.77635684e-15 Z M119.97284,0.000112852665 L119.97284,6.28751097 L113.685066,6.28751097 L113.685066,0.000112852665 L119.97284,0.000112852665 Z" id="Combined-Shape" fill="#FF6200"></path>
    </g>
</svg>